<?xml version="1.0" encoding="UTF-8" standalone="no"?>
<!-- Created with Inkscape (http://www.inkscape.org/) -->

<svg
   xmlns:dc="http://purl.org/dc/elements/1.1/"
   xmlns:cc="http://creativecommons.org/ns#"
   xmlns:rdf="http://www.w3.org/1999/02/22-rdf-syntax-ns#"
   xmlns:svg="http://www.w3.org/2000/svg"
   xmlns="http://www.w3.org/2000/svg"
   xmlns:sodipodi="http://sodipodi.sourceforge.net/DTD/sodipodi-0.dtd"
   xmlns:inkscape="http://www.inkscape.org/namespaces/inkscape"
   width="194.51859"
   height="145.02934"
   viewBox="0 0 51.466375 38.372347"
   version="1.1"
   id="svg6503"
   inkscape:version="0.92.3 (2405546, 2018-03-11)"
   sodipodi:docname="anvers-700.svg">
  <defs
     id="defs6497" />
  <sodipodi:namedview
     id="base"
     pagecolor="#ffffff"
     bordercolor="#666666"
     borderopacity="1.0"
     inkscape:pageopacity="0.0"
     inkscape:pageshadow="2"
     inkscape:zoom="0.9899495"
     inkscape:cx="-82.016734"
     inkscape:cy="125.81926"
     inkscape:document-units="mm"
     inkscape:current-layer="layer1"
     showgrid="false"
     inkscape:window-width="1920"
     inkscape:window-height="950"
     inkscape:window-x="-9"
     inkscape:window-y="-9"
     inkscape:window-maximized="1"
     fit-margin-top="0"
     fit-margin-left="0"
     fit-margin-right="0"
     fit-margin-bottom="0"
     objecttolerance="20"
     guidetolerance="20"
     gridtolerance="10" />
  <metadata
     id="metadata6500">
    <rdf:RDF>
      <cc:Work
         rdf:about="">
        <dc:format>image/svg+xml</dc:format>
        <dc:type
           rdf:resource="http://purl.org/dc/dcmitype/StillImage" />
        <dc:title></dc:title>
      </cc:Work>
    </rdf:RDF>
  </metadata>
  <g
     inkscape:label="Calque 1"
     inkscape:groupmode="layer"
     id="layer1"
     transform="translate(-58.852156,-188.49881)">
    <g
       id="anvers"
       transform="matrix(0.24324785,0,0,0.24324785,64.550958,228.16932)">
      <path
         inkscape:connector-curvature="0"
         d="m 95.072034,-163.08678 11.069986,5.98 1.3,18.09 -14.379986,2.36 22.269986,-0.87 6.24,7.37 21.16,-28.48 9.67,4.64 5.1,12.2 -6.34,11.98 12.24,24.36 20.56,3.44 -0.62,13.460001 v 0 l -4.49,12.64 9.3,21.54 -48.55,23.15 -6.09,12.47 v 0 l -31.92,7.25 -5.059986,-8.57 -18.38,12.33999 -2.57,-8.04999 -19.61,10.44999 -36.53,-1.36 -2.88,-10.75999 -27.31,-2.13 v 0 l -9.63,-1.02 -3.05,-18.77 27.0400003,-7.7 3.35,-9.06 -8.19,-30.53 6.24,-9.27 -16.4000003,-21.420001 v 0 l -4.08,-6.56 41.88,3.11 -10.37,-25.59 18.44,-9.75 12.66,-1.28 -0.49,18.24 20.25,0.12 z"
         id="path2121" />
    </g>
  </g>
</svg>
