<?xml version="1.0" encoding="UTF-8" standalone="no"?>
<!-- Created with Inkscape (http://www.inkscape.org/) -->

<svg
   xmlns:dc="http://purl.org/dc/elements/1.1/"
   xmlns:cc="http://creativecommons.org/ns#"
   xmlns:rdf="http://www.w3.org/1999/02/22-rdf-syntax-ns#"
   xmlns:svg="http://www.w3.org/2000/svg"
   xmlns="http://www.w3.org/2000/svg"
   xmlns:sodipodi="http://sodipodi.sourceforge.net/DTD/sodipodi-0.dtd"
   xmlns:inkscape="http://www.inkscape.org/namespaces/inkscape"
   width="230.67711"
   height="101.98483"
   viewBox="0 0 61.033318 26.983485"
   version="1.1"
   id="svg6503"
   inkscape:version="0.92.3 (2405546, 2018-03-11)"
   sodipodi:docname="brabant flamand-700.svg">
  <defs
     id="defs6497" />
  <sodipodi:namedview
     id="base"
     pagecolor="#ffffff"
     bordercolor="#666666"
     borderopacity="1.0"
     inkscape:pageopacity="0.0"
     inkscape:pageshadow="2"
     inkscape:zoom="0.9899495"
     inkscape:cx="193.31562"
     inkscape:cy="103.89125"
     inkscape:document-units="mm"
     inkscape:current-layer="layer1"
     showgrid="false"
     inkscape:window-width="1920"
     inkscape:window-height="950"
     inkscape:window-x="-9"
     inkscape:window-y="-9"
     inkscape:window-maximized="1"
     fit-margin-top="0"
     fit-margin-left="0"
     fit-margin-right="0"
     fit-margin-bottom="0"
     objecttolerance="20"
     guidetolerance="20"
     gridtolerance="10" />
  <metadata
     id="metadata6500">
    <rdf:RDF>
      <cc:Work
         rdf:about="">
        <dc:format>image/svg+xml</dc:format>
        <dc:type
           rdf:resource="http://purl.org/dc/dcmitype/StillImage" />
        <dc:title></dc:title>
      </cc:Work>
    </rdf:RDF>
  </metadata>
  <g
     inkscape:label="Calque 1"
     inkscape:groupmode="layer"
     id="layer1"
     transform="translate(-55.831662,-206.43951)">
    <g
       id="brabant-flamand"
       transform="matrix(0.24324785,0,0,0.24324785,74.7072,212.13316)">
      <path
         inkscape:connector-curvature="0"
         d="m 133.50203,-18.776789 14.9,6.2 11.65,-10.83 7.84,7.9 -8.05,1.11 -14.34,24.04 9.43,10.31 18.38,1.66 -16.55,59.62 v 0 l -15.68,-12.63 v 0 l -7.29,-6.07 -11.05,8.25 -32.099996,-19.48 -22.9,2.3 -1.63,17.33 -7.57,-6.53 -13.71,11.1 -6.19,-8.52 -23.46,12.02 -7.43,-5.42 -17.12,13.94 -17.99,-12.65 -10.68,7.29 v 0 l -36.45,4.9 -3.11,-12.74 v 0 h 10.89 l -0.54,-13.46 21.98,-4.26 -4.08,-15.01 10.43,-28.97 13.21,0.12 -3.58,-11.09 17.12,-10.26 1.42,-10.98 v 0 l 27.31,2.13 2.88,10.76 36.53,1.36 19.61,-10.45 2.57,8.05 18.38,-12.34 5.059996,8.57 z m -108.599996,40.57 v 0 l -20.99,2.95 -13.52,23.29 26.92,16.15 20.5,-8.41 -11.52,-32.01 z"
         id="path2133" />
    </g>
  </g>
</svg>
