<?xml version="1.0" encoding="UTF-8" standalone="no"?>
<!-- Created with Inkscape (http://www.inkscape.org/) -->

<svg
   xmlns:dc="http://purl.org/dc/elements/1.1/"
   xmlns:cc="http://creativecommons.org/ns#"
   xmlns:rdf="http://www.w3.org/1999/02/22-rdf-syntax-ns#"
   xmlns:svg="http://www.w3.org/2000/svg"
   xmlns="http://www.w3.org/2000/svg"
   xmlns:sodipodi="http://sodipodi.sourceforge.net/DTD/sodipodi-0.dtd"
   xmlns:inkscape="http://www.inkscape.org/namespaces/inkscape"
   width="583.93463"
   height="474.43817"
   viewBox="0 0 154.49937 125.52843"
   version="1.1"
   id="svg6503"
   inkscape:version="0.92.3 (2405546, 2018-03-11)"
   sodipodi:docname="carte-belgium-600.svg">
  <defs
     id="defs6497" />
  <sodipodi:namedview
     id="base"
     pagecolor="#ffffff"
     bordercolor="#666666"
     borderopacity="1.0"
     inkscape:pageopacity="0.0"
     inkscape:pageshadow="2"
     inkscape:zoom="1.979899"
     inkscape:cx="212.90679"
     inkscape:cy="303.49594"
     inkscape:document-units="mm"
     inkscape:current-layer="layer1"
     showgrid="false"
     inkscape:window-width="1920"
     inkscape:window-height="1001"
     inkscape:window-x="-9"
     inkscape:window-y="-9"
     inkscape:window-maximized="1"
     fit-margin-top="0"
     fit-margin-left="0"
     fit-margin-right="0"
     fit-margin-bottom="0"
     objecttolerance="1"
     guidetolerance="1"
     gridtolerance="10" />
  <metadata
     id="metadata6500">
    <rdf:RDF>
      <cc:Work
         rdf:about="">
        <dc:format>image/svg+xml</dc:format>
        <dc:type
           rdf:resource="http://purl.org/dc/dcmitype/StillImage" />
        <dc:title></dc:title>
      </cc:Work>
    </rdf:RDF>
  </metadata>
  <g
     inkscape:label="Calque 1"
     inkscape:groupmode="layer"
     id="layer1"
     transform="translate(0.14389727,-140.12304)">
    <path
       id="path2106"
       d="m 36.45931,186.6854 6.822376,2.94971 1.895219,-3.23954 3.258049,-0.555 0.659832,2.11105 4.842883,0.97022 v 0 l 0.639277,2.61877 7.492486,-1.00722 v 0 l 0.248721,4.66199 3.019606,-1.84794 6.033044,7.42671 3.194327,-1.32994 2.31044,0.40905 -0.123333,1.91372 4.446159,-0.82839 v 0 l -0.279555,6.28588 1.831496,1.05244 -0.935276,6.05977 -7.609652,0.962 -4.614714,3.4821 4.513992,1.44711 -1.514942,3.97338 2.809939,14.05381 v 0 l -11.611811,-2.30016 0.723554,-4.26939 2.803772,-1.31144 -1.208664,-3.95899 -2.871606,-0.0432 3.198439,-8.63537 -1.847941,-1.06683 -0.986665,1.94661 -4.522214,-6.30644 -4.902491,2.00006 -6.181046,-1.51289 -1.582775,2.87983 -1.99183,-4.02888 0.06372,-5.4246 -2.082274,-2.46872 -4.318714,0.55089 0.727666,-2.2755 -1.763664,-0.60227 -3.946659,2.63316 -3.379325,-2.08228 -2.086385,-8.38459 0.85511,-2.74416 -3.323828,-3.43894 v 0 l 5.13888,0.037 2.158327,2.88599 z m -23.875231,3.81099 -0.836609,-2.74005 4.762713,-1.48822 -0.947609,-1.24977 2.546828,-1.06684 0.74411,2.36594 v 0 l -3.177883,1.82122 -1.196331,3.2375 z"
       inkscape:connector-curvature="0"
       style="stroke-width:0.20555517" />
    <path
       id="path2109"
       d="m 81.198395,200.94065 0.912665,-1.73283 2.725661,0.18089 -0.199388,-2.52422 5.077213,1.0175 7.710374,-3.30533 v 0 l 2.069941,6.87171 4.234439,1.28472 0.87566,2.75855 1.39983,-0.65161 1.49233,4.75244 2.49955,2.40705 3.83772,-0.888 v 0 l 0.0206,2.70099 -2.06788,1.32995 1.83972,-0.0822 0.21994,1.73078 -7.46987,4.48932 2.94355,3.53144 -1.54372,1.59922 1.07094,1.26211 -7.73298,1.26211 -0.41112,-1.85206 -0.955827,4.30638 -2.75855,1.52111 5.864487,6.55927 -5.233433,4.2961 -0.828387,3.182 v 0 l -4.692825,0.52005 -0.176777,-4.55099 1.644441,-2.64755 -3.946659,-3.66916 2.061719,-4.29816 -0.842777,-1.67116 3.046328,-4.45644 -2.779106,-1.97333 -5.321823,5.18205 -0.03494,5.53765 -10.349702,3.33411 v 0 L 72.5898,224.2013 l 1.514942,-3.97338 -4.513992,-1.44711 4.614714,-3.4821 7.609652,-0.962 0.935276,-6.05977 -1.831497,-1.05038 z"
       inkscape:connector-curvature="0"
       style="stroke-width:0.20555517" />
    <path
       id="path2112"
       d="m 113.83439,211.11152 1.07505,-3.17172 1.89933,1.38955 1.75544,-1.10177 0.98461,2.03294 7.4041,2.15833 0.0843,5.98782 3.34644,0.44194 2.93943,-1.56427 -1.43477,-0.0946 0.69478,-4.14604 4.6661,1.06888 1.813,9.1616 v 0 l -5.09572,4.42971 -3.11827,6.17488 0.69683,1.97127 -2.44405,1.24772 -1.61566,3.82127 1.94866,1.26211 -1.74516,2.64755 0.55294,2.7935 1.35461,-0.26517 1.50877,4.49344 2.35361,0.83249 -0.82222,2.00211 1.81505,0.78317 -2.77499,6.81004 -7.64254,0.0863 -1.5355,2.70922 -2.19122,-1.39366 -3.35466,1.97127 -1.72666,-6.02893 -3.219,-2.14805 -1.39983,1.21277 0.70095,-2.63522 -2.22,-2.3721 -4.39066,-0.0493 -2.88599,-4.28582 -5.01966,-2.39677 v 0 l 0.828387,-3.182 5.233433,-4.2961 -5.864487,-6.55927 2.75855,-1.52111 0.955827,-4.30638 0.41112,1.85206 7.73298,-1.26211 -1.07094,-1.26211 1.54372,-1.59922 -2.94355,-3.53144 7.46987,-4.48932 -0.21994,-1.73078 -1.83972,0.0822 2.06788,-1.32994 z"
       inkscape:connector-curvature="0"
       style="stroke-width:0.20555517" />
    <path
       id="path2115"
       d="m 125.78537,183.8734 -0.41522,3.38138 v 0 l 8.00431,3.07511 0.3885,-2.91888 v 0 l 5.13066,0.0205 0.78317,2.30633 3.08743,-0.222 2.41528,6.04127 3.66299,-0.006 -3.61983,5.28894 1.90344,2.93532 4.97444,0.41317 1.02366,3.30738 -1.40805,3.52322 2.63933,2.79966 -1.84794,1.94866 -2.15833,-0.93116 -1.08739,3.22105 -4.13782,1.97744 0.57966,3.27038 -1.78833,0.45428 -0.259,2.84488 -1.04011,-2.26522 -2.09871,0.814 -1.45533,-1.87877 v 0 l -1.813,-9.1616 -4.6661,-1.06888 -0.69478,4.14604 1.43477,0.0946 -2.93943,1.56427 -3.34644,-0.44194 -0.0843,-5.98782 -7.4041,-2.15833 -0.98461,-2.03294 -1.75544,1.10177 -1.89933,-1.38955 -1.07505,3.17172 v 0 l -3.83771,0.888 -2.49955,-2.40706 -1.49234,-4.75243 -1.39983,0.65161 -0.87566,-2.75855 -4.234437,-1.28472 -2.069941,-6.87171 v 0 l 1.463553,-6.82443 v 0 l 3.223105,2.59616 v 0 l 2.59411,0.83661 0.36794,-1.7945 5.19438,0.48511 3.29916,-1.97744 1.23127,1.82533 2.35156,-0.30216 8.41131,-5.55411 v 0 z"
       inkscape:connector-curvature="0"
       style="stroke-width:0.20555517" />
    <path
       id="path2118"
       d="m 129.41753,186.59084 4.34543,0.82017 v 0 l -0.38849,2.91682 -8.00432,-3.0751 v 0 z m -9.94887,-32.25983 1.04833,3.53555 11.7002,4.95594 -5.34649,11.54603 1.46355,0.77905 -4.49754,4.96416 1.72666,3.75138 v 0 l -8.41338,5.5541 -2.35155,0.30217 -1.23127,-1.82738 -3.29916,1.97744 -5.19438,-0.481 -0.36795,1.79449 -2.59616,-0.83661 v 0 l 3.40194,-12.2552 -3.7781,-0.34122 -1.938389,-2.11927 2.947659,-4.94155 1.65472,-0.22816 -1.61155,-1.62389 -2.39472,2.22616 -3.062771,-1.27444 v 0 l 1.251831,-2.56327 9.9797,-4.7586 -1.91166,-4.42766 0.92294,-2.59822 v 0 l 7.1821,-0.11511 2.74211,-2.42966 z"
       inkscape:connector-curvature="0"
       style="stroke-width:0.20555517" />
    <path
       id="path2121"
       d="m 89.426769,140.12304 2.275493,1.22922 0.267222,3.71849 -2.955881,0.48511 4.577711,-0.17883 1.282664,1.51494 4.349548,-5.85421 1.987714,0.95378 1.04834,2.50777 -1.30322,2.46255 2.51599,5.00732 4.22622,0.70711 -0.12745,2.76678 v 0 l -0.92294,2.59821 1.91166,4.42766 -9.979702,4.7586 -1.251831,2.56328 v 0 l -6.561321,1.49027 -1.040106,-1.76161 -3.778104,2.53655 -0.528277,-1.65471 -4.030937,2.14805 -7.50893,-0.27956 -0.591999,-2.21177 -5.613712,-0.43783 v 0 l -1.979496,-0.20967 -0.626944,-3.85827 5.558212,-1.58278 0.68861,-1.86233 -1.683497,-6.27559 1.282665,-1.9055 -3.371105,-4.40299 v 0 l -0.838665,-1.34844 8.60865,0.63927 -2.131607,-5.26016 3.790437,-2.00416 2.602329,-0.26311 -0.100722,3.74933 4.162492,0.0247 z"
       inkscape:connector-curvature="0"
       style="stroke-width:0.20555517" />
    <path
       id="path2124"
       d="m 67.543366,149.52308 3.371104,4.40299 -1.28472,1.9055 1.683497,6.27559 -0.686554,1.86233 -5.558212,1.58278 0.626944,3.85827 1.979496,0.20967 v 0 l -0.291889,2.25699 -3.519104,2.109 0.735887,2.2796 -2.713328,-0.0267 -2.14394,5.95493 0.838665,3.08744 -4.518103,0.87567 0.113056,2.76677 h -2.240552 v 0 l -4.840825,-0.97022 -0.659832,-2.11105 -3.260105,0.555 -1.895218,3.23955 -6.820321,-2.94972 v 0 l 2.478995,-2.41733 -2.754439,-3.91994 1.038054,-1.8911 -2.49544,-0.45428 1.784219,-2.43583 -1.86233,-0.87978 1.294998,-5.72882 -4.594158,-3.27449 3.16966,-3.90966 -2.026774,-1.98977 0.850999,-5.26838 v 0 l 1.88083,1.90549 3.946659,-0.0761 -0.464555,-2.62494 3.027828,-1.20661 7.455486,2.72361 0.544722,3.08949 3.845937,-0.54883 -0.0185,1.44505 6.960098,-2.78116 z"
       inkscape:connector-curvature="0"
       style="stroke-width:0.20555517" />
    <path
       id="path2127"
       d="m 32.827152,148.56519 0.515944,5.95288 v 0 l -0.850999,5.26838 2.026774,1.98977 -3.16966,3.90966 4.594158,3.27449 -1.294998,5.72883 1.86233,0.87977 -1.784219,2.43583 2.49544,0.45428 -1.038054,1.89111 2.754439,3.91994 -2.478995,2.41732 v 0 l -3.995992,3.64861 -2.15833,-2.886 -5.138879,-0.0391 v 0 l -1.087387,-2.13572 -5.225212,1.04628 v 0 l -0.74411,-2.36594 -2.546828,1.06683 0.947609,1.24772 -4.762713,1.48822 0.836609,2.74005 v 0 l -2.9147722,-1.221 -2.6516617,-5.28482 -3.5026601,-0.13156 -1.4286084,-2.3495 -0.3699994,-4.42971 1.6629414,-1.75338 -3.52321564,-8.98893 25.54228504,-15.42486 0.104834,-2.08844 0.483054,2.18505 0.01233,-2.23644 1.19222,1.48205 z"
       inkscape:connector-curvature="0"
       style="stroke-width:0.20555517" />
    <path
       id="path2130"
       d="m 62.069432,190.5375 2.195329,-1.50055 3.697937,2.60233 3.519105,-2.86544 1.527275,1.11411 4.822324,-2.46872 1.272386,1.75133 2.818162,-2.28166 1.556052,1.34227 0.335055,-3.56227 4.707213,-0.47277 6.596265,4.00421 2.271385,-1.69583 1.500553,1.24772 v 0 l -1.463553,6.82443 v 0 l -7.710374,3.30533 -5.077213,-1.0175 0.199388,2.52422 -2.72566,-0.18089 -0.912665,1.73283 v 0 l -4.446159,0.82633 0.123333,-1.91372 -2.31044,-0.407 -3.194327,1.32995 -6.0351,-7.42671 -3.01755,1.84999 z"
       inkscape:connector-curvature="0"
       style="stroke-width:0.20555517" />
    <path
       id="path2133"
       d="m 97.326253,169.7867 3.062777,1.27445 2.39471,-2.22617 1.61156,1.62389 -1.65472,0.22817 -2.947664,4.94154 1.938384,2.11928 3.7781,0.34122 -3.40193,12.2552 v 0 l -3.223108,-2.59617 v 0 l -1.498498,-1.24772 -2.271384,1.69583 -6.59832,-4.00421 -4.707214,0.47278 -0.335055,3.56227 -1.556052,-1.34228 -2.818162,2.28167 -1.272386,-1.75133 -4.822324,2.47077 -1.527275,-1.11411 -3.519105,2.86544 -3.697937,-2.60027 -2.19533,1.49849 v 0 l -7.492486,1.00722 -0.639276,-2.61877 v 0 h 2.238496 l -0.111,-2.76677 4.518103,-0.87567 -0.838666,-3.08538 2.143941,-5.95493 2.715384,0.0247 -0.735888,-2.2796 3.519105,-2.109 0.291888,-2.257 v 0 l 5.613712,0.43784 0.591999,2.21177 7.50893,0.27956 4.030937,-2.14806 0.528277,1.65472 3.778104,-2.53655 1.040108,1.76161 z m -22.32329,8.33938 v 0 l -4.314603,0.60638 -2.779106,4.78738 5.533545,3.31972 4.213881,-1.72872 -2.367995,-6.57982 z"
       inkscape:connector-curvature="0"
       style="stroke-width:0.20555517" />
    <path
       style="fill:#000000;fill-opacity:1;stroke:#000000;stroke-width:0.51091707px;stroke-linecap:butt;stroke-linejoin:miter;stroke-opacity:1"
       d="m 68.303831,183.42218 2.568236,-4.5123 3.987217,-0.57155 0.264036,0.38168 2.188318,6.20176 -3.894135,1.6294 z"
       id="path7691"
       inkscape:connector-curvature="0" />
  </g>
</svg>
