<?xml version="1.0" encoding="UTF-8" standalone="no"?>
<!-- Created with Inkscape (http://www.inkscape.org/) -->

<svg
   xmlns:dc="http://purl.org/dc/elements/1.1/"
   xmlns:cc="http://creativecommons.org/ns#"
   xmlns:rdf="http://www.w3.org/1999/02/22-rdf-syntax-ns#"
   xmlns:svg="http://www.w3.org/2000/svg"
   xmlns="http://www.w3.org/2000/svg"
   xmlns:sodipodi="http://sodipodi.sourceforge.net/DTD/sodipodi-0.dtd"
   xmlns:inkscape="http://www.inkscape.org/namespaces/inkscape"
   width="282.22284"
   height="229.30185"
   viewBox="0 0 74.671455 60.669443"
   version="1.1"
   id="svg6503"
   inkscape:version="0.92.3 (2405546, 2018-03-11)"
   sodipodi:docname="carte-belgium-300.svg">
  <defs
     id="defs6497" />
  <sodipodi:namedview
     id="base"
     pagecolor="#ffffff"
     bordercolor="#666666"
     borderopacity="1.0"
     inkscape:pageopacity="0.0"
     inkscape:pageshadow="2"
     inkscape:zoom="11.2"
     inkscape:cx="122.31853"
     inkscape:cy="150.18879"
     inkscape:document-units="mm"
     inkscape:current-layer="layer1"
     showgrid="false"
     inkscape:window-width="1920"
     inkscape:window-height="1001"
     inkscape:window-x="-9"
     inkscape:window-y="-9"
     inkscape:window-maximized="1"
     fit-margin-top="0"
     fit-margin-left="0"
     fit-margin-right="0"
     fit-margin-bottom="0"
     objecttolerance="10000"
     gridtolerance="10000"
     guidetolerance="10000" />
  <metadata
     id="metadata6500">
    <rdf:RDF>
      <cc:Work
         rdf:about="">
        <dc:format>image/svg+xml</dc:format>
        <dc:type
           rdf:resource="http://purl.org/dc/dcmitype/StillImage" />
        <dc:title></dc:title>
      </cc:Work>
    </rdf:RDF>
  </metadata>
  <g
     inkscape:label="Calque 1"
     inkscape:groupmode="layer"
     id="layer1"
     transform="translate(0.14389728,-140.12303)">
    <g
       id="hainaut"
       transform="matrix(0.09934736,0,0,0.09934736,33.70156,156.32527)">
      <path
         inkscape:connector-curvature="0"
         d="m -162.60798,63.433229 33.19,14.35 9.22,-15.76 15.85,-2.7 3.21,10.27 23.560014,4.72 v 0 l 3.11,12.74 36.45,-4.9 v 0 l 1.21,22.680001 14.69,-8.990001 29.3500003,36.130001 15.5399997,-6.47 11.24,1.99 -0.6,9.31 21.63,-4.03 v 0 l -1.36,30.57999 8.91,5.12 -4.55,29.48 -37.02,4.68 -22.4499997,16.94 21.9599997,7.04 -7.37,19.33 13.67,68.37 v 0 l -56.49,-11.19 3.52,-20.77 13.64,-6.38 -5.88,-19.26 -13.97,-0.21 15.56,-42.01 -8.99,-5.19 -4.8,9.47 -22,-30.68 -23.85,9.73 -30.070014,-7.36 -7.7,14.01 -9.69,-19.6 0.31,-26.39 -10.13,-12.00999 -21.01,2.68 3.54,-11.07 -8.58,-2.93 -19.2,12.81 -16.43999,-10.13 -10.15,-40.790001 4.16,-13.35 -16.17,-16.73 v 0 l 25,0.18 10.49999,14.04 z m -116.14999,18.54 -4.07,-13.33 23.17,-7.24 -4.61,-6.08 12.39,-5.19 3.62,11.51 v 0 l -15.46,8.86 -5.82,15.75 z"
         id="path2106" />
    </g>
    <g
       id="namur"
       transform="matrix(0.09934736,0,0,0.09934736,33.70156,156.32527)">
      <path
         inkscape:connector-curvature="0"
         d="m 55.042033,132.78323 4.44,-8.43 13.259997,0.88 -0.97,-12.28 24.7,4.95 37.51,-16.08 v 0 l 10.07,33.43 20.6,6.25 4.26,13.42 6.81,-3.17 7.26,23.12 12.16,11.71 18.67,-4.32 v 0 l 0.1,13.14 -10.06,6.47 8.95,-0.4 1.07,8.42 -36.34,21.83999 14.32,17.18 -7.51,7.78 5.21,6.14 -37.62,6.14 -2,-9.01 -4.65,20.95 -13.42,7.4 28.53,31.91 -25.46,20.9 -4.03,15.48 v 0 l -22.83,2.53 -0.86,-22.14 8,-12.88 -19.2,-17.85 10.03,-20.91 -4.1,-8.13 14.82,-21.68 -13.52,-9.6 -25.89,25.21 -0.17,26.94 -50.349997,16.22 v 0 l -13.67,-68.37 7.37,-19.33 -21.959999,-7.04 22.449999,-16.93999 37.02,-4.68 4.55,-29.48 -8.91,-5.11 z"
         id="path2109" />
    </g>
    <g
       id="luxemburg"
       transform="matrix(0.09934736,0,0,0.09934736,33.70156,156.32527)">
      <path
         inkscape:connector-curvature="0"
         d="m 213.81203,182.26322 5.23,-15.43 9.24,6.76 8.54,-5.36 4.79,9.89 36.02,10.5 0.41,29.13 16.28,2.15 14.3,-7.61 -6.98,-0.46 3.38,-20.17 22.7,5.2 8.82,44.57 v 0 l -24.79,21.55 -15.17,30.04 3.39,9.59 -11.89,6.07 -7.86,18.59 9.48,6.14 -8.49,12.88 2.69,13.59 6.59,-1.29 7.34,21.86 11.45,4.05 -4,9.74 8.83,3.81 -13.5,33.13 -37.18,0.42 -7.47,13.18 -10.66,-6.78 -16.32,9.59 -8.4,-29.33 -15.66,-10.45 -6.81,5.9 3.41,-12.82 -10.8,-11.54 -21.36,-0.24 -14.04,-20.85 -24.42,-11.66 v 0 l 4.03,-15.48 25.46,-20.9 -28.53,-31.91 13.42,-7.4 4.65,-20.95 2,9.01 37.62,-6.14 -5.21,-6.14 7.51,-7.78 -14.32,-17.18 36.34,-21.84 -1.07,-8.42 -8.95,0.4 10.06,-6.47 z"
         id="path2112" />
    </g>
    <g
       id="liege"
       transform="matrix(0.09934736,0,0,0.09934736,33.70156,156.32527)">
      <path
         inkscape:connector-curvature="0"
         d="m 271.95203,49.75322 -2.02,16.45 v 0 l 38.94,14.96 1.89,-14.2 v 0 l 24.96,0.1 3.81,11.22 15.02,-1.08 11.75,29.39 17.82,-0.03 -17.61,25.73 9.26,14.28 24.2,2.01 4.98,16.09 -6.85,17.14 12.84,13.62 -8.99,9.48 -10.5,-4.53 -5.29,15.67 -20.13,9.62 2.82,15.91 -8.7,2.21 -1.26,13.84 -5.06,-11.02 -10.21,3.96 -7.08,-9.14 v 0 l -8.82,-44.57 -22.7,-5.2 -3.38,20.17 6.98,0.46 -14.3,7.61 -16.28,-2.15 -0.41,-29.13 -36.02,-10.5 -4.79,-9.89 -8.53999,5.36 -9.24,-6.76 -5.23,15.43 v 0 l -18.67,4.32 -12.16,-11.71 -7.26,-23.12 -6.81,3.17 -4.26,-13.42 -20.6,-6.25 -10.07,-33.43 v 0 l 7.12,-33.2 v 0 l 15.68,12.63 v 0 l 12.62,4.07 1.79,-8.73 25.27,2.36 16.05,-9.62 5.99,8.88 11.44,-1.47 40.91999,-27.02 v 0 z"
         id="path2115" />
    </g>
    <g
       id="limburg"
       transform="matrix(0.09934736,0,0,0.09934736,33.70156,156.32527)">
      <path
         inkscape:connector-curvature="0"
         d="m 289.62204,62.97322 21.14,3.99 v 0 l -1.89,14.19 -38.94,-14.96 v 0 z m -48.4,-156.939999 5.1,17.2 56.92,24.11 -26.01,56.169999 7.12,3.79 -21.88,24.15 8.4,18.25 v 0 l -40.93001,27.02 -11.44,1.47 -5.99,-8.89 -16.05,9.62 -25.27,-2.34 -1.79,8.73 -12.63,-4.07 v 0 l 16.55,-59.62 -18.38,-1.66 -9.43,-10.31 14.34,-24.039999 8.05,-1.11 -7.84,-7.9 -11.65,10.83 -14.9,-6.2 v 0 l 6.09,-12.47 48.55,-23.15 -9.3,-21.54 4.49,-12.64 v 0 l 34.94,-0.56 13.34,-11.820001 z"
         id="path2118" />
    </g>
    <g
       id="anvers"
       transform="matrix(0.09934736,0,0,0.09934736,33.70156,156.32527)">
      <path
         inkscape:connector-curvature="0"
         d="m 95.072034,-163.08678 11.069986,5.98 1.3,18.09 -14.379986,2.36 22.269986,-0.87 6.24,7.37 21.16,-28.48 9.67,4.64 5.1,12.2 -6.34,11.98 12.24,24.36 20.56,3.44 -0.62,13.460001 v 0 l -4.49,12.64 9.3,21.54 -48.55,23.15 -6.09,12.47 v 0 l -31.92,7.25 -5.059986,-8.57 -18.38,12.33999 -2.57,-8.04999 -19.61,10.44999 -36.53,-1.36 -2.88,-10.75999 -27.31,-2.13 v 0 l -9.63,-1.02 -3.05,-18.77 27.0400003,-7.7 3.35,-9.06 -8.19,-30.53 6.24,-9.27 -16.4000003,-21.420001 v 0 l -4.08,-6.56 41.88,3.11 -10.37,-25.59 18.44,-9.75 12.66,-1.28 -0.49,18.24 20.25,0.12 z"
         id="path2121" />
    </g>
    <g
       id="flandre-est"
       transform="matrix(0.09934736,0,0,0.09934736,33.70156,156.32527)">
      <path
         inkscape:connector-curvature="0"
         d="m -11.387967,-117.35678 16.4,21.42 -6.25,9.27 8.19,30.530001 -3.34,9.06 -27.04,7.7 3.05,18.77 9.63,1.02 v 0 l -1.42,10.97999 -17.12,10.26 3.58,11.09 -13.2,-0.13 -10.43,28.97 4.08,15.02 -21.98,4.26 0.55,13.46 h -10.9 v 0 l -23.550003,-4.72 -3.21,-10.27 -15.86,2.7 -9.22,15.76 -33.18,-14.35 v 0 l 12.06,-11.76 -13.4,-19.07 5.05,-9.2 -12.14,-2.21 8.68,-11.85 -9.06,-4.28 6.3,-27.86999 -22.35,-15.93 15.42,-19.02 -9.86,-9.68 4.14,-25.630001 v 0 l 9.15,9.27 19.2,-0.37 -2.26,-12.77 14.73,-5.87 36.27,13.25 2.650004,15.030001 18.709999,-2.670001 -0.09,7.030001 33.86,-13.530001 z"
         id="path2124" />
    </g>
    <g
       id="flandre-west"
       transform="matrix(0.09934736,0,0,0.09934736,33.70156,156.32527)">
      <path
         inkscape:connector-curvature="0"
         d="m -180.27797,-122.01678 2.51,28.960001 v 0 l -4.14,25.63 9.86,9.68 -15.42,19.02 22.35,15.93 -6.3,27.87001 9.06,4.28 -8.68,11.85 12.14,2.21 -5.05,9.2 13.4,19.07 -12.06,11.76 v 0 l -19.44,17.75 -10.5,-14.04 -25,-0.19 v 0 l -5.29,-10.39 -25.42,5.09 v 0 l -3.62,-11.51 -12.39,5.19 4.61,6.07 -23.17,7.24 4.07,13.33 v 0 l -14.18,-5.94 -12.9,-25.71 -17.04,-0.64 -6.95,-11.43 -1.8,-21.55 8.09,-8.53 -17.14,-43.73001 124.26,-75.040001 0.51,-10.16 2.35,10.63 0.06,-10.88 5.8,7.21 z"
         id="path2127" />
    </g>
    <g
       id="brabant-wallon"
       transform="matrix(0.09934736,0,0,0.09934736,33.70156,156.32527)">
      <path
         inkscape:connector-curvature="0"
         d="m -38.017966,82.17323 10.68,-7.3 17.990001,12.66 17.12,-13.94 7.429999,5.42 23.46,-12.01 6.19,8.52 13.71,-11.1 7.569996,6.53 1.63,-17.33 22.9,-2.3 32.09,19.48 11.05,-8.25 7.3,6.07 v 0 l -7.12,33.2 v 0 l -37.51,16.08 -24.7,-4.95 0.97,12.28 -13.259996,-0.88 -4.44,8.43 v 0 l -21.63,4.02 0.6,-9.31 -11.24,-1.98 -15.539999,6.47 -29.360001,-36.13 -14.68,9 z"
         id="path2130" />
    </g>
    <g
       id="brabant-flamand"
       transform="matrix(0.09934736,0,0,0.09934736,33.70156,156.32527)"
       style="">
      <path
         inkscape:connector-curvature="0"
         d="m 133.50203,-18.776789 14.9,6.2 11.65,-10.83 7.84,7.9 -8.05,1.11 -14.34,24.04 9.43,10.31 18.38,1.66 -16.55,59.62 v 0 l -15.68,-12.63 v 0 l -7.29,-6.07 -11.05,8.25 -32.099996,-19.48 -22.9,2.3 -1.63,17.33 -7.57,-6.53 -13.71,11.1 -6.19,-8.52 -23.46,12.02 -7.43,-5.42 -17.12,13.94 -17.99,-12.65 -10.68,7.29 v 0 l -36.45,4.9 -3.11,-12.74 v 0 h 10.89 l -0.54,-13.46 21.98,-4.26 -4.08,-15.01 10.43,-28.97 13.21,0.12 -3.58,-11.09 17.12,-10.26 1.42,-10.98 v 0 l 27.31,2.13 2.88,10.76 36.53,1.36 19.61,-10.45 2.57,8.05 18.38,-12.34 5.059996,8.57 z m -108.599996,40.57 v 0 l -20.99,2.95 -13.52,23.29 26.92,16.15 20.5,-8.41 -11.52,-32.01 z"
         id="path2133"
         style="" />
    </g>
    <g
       id="bruxelles"
       transform="matrix(0.09934736,0,0,0.09934736,97.111255,163.80882)">
      <path
         inkscape:connector-curvature="0"
         d="m 25.522034,23.183211 0.78,0.58 v 0 l 11.51,32.02 -20.5,8.4 -27.0400002,-16.51 10.2900002,-19.82 15.68,-4.64 v 0 0 0 l 8.66,-1.42 v 0 z"
         id="path2136" />
    </g>
    <path
       style="fill:#000000;fill-opacity:1;"
       d="m 32.747033,161.09724 1.343176,-2.3138 2.085303,-0.29307 0.138091,0.19571 1.144482,3.18011 -2.03662,0.83551 z"
       id="path2126"
       inkscape:connector-curvature="0" />
  </g>
</svg>
