<?xml version="1.0" encoding="UTF-8" standalone="no"?>
<!-- Created with Inkscape (http://www.inkscape.org/) -->

<svg
   xmlns:dc="http://purl.org/dc/elements/1.1/"
   xmlns:cc="http://creativecommons.org/ns#"
   xmlns:rdf="http://www.w3.org/1999/02/22-rdf-syntax-ns#"
   xmlns:svg="http://www.w3.org/2000/svg"
   xmlns="http://www.w3.org/2000/svg"
   xmlns:sodipodi="http://sodipodi.sourceforge.net/DTD/sodipodi-0.dtd"
   xmlns:inkscape="http://www.inkscape.org/namespaces/inkscape"
   width="178.74236"
   height="179.41348"
   viewBox="0 0 47.292248 47.469817"
   version="1.1"
   id="svg6503"
   inkscape:version="0.92.3 (2405546, 2018-03-11)"
   sodipodi:docname="flandre-orientale-700.svg">
  <defs
     id="defs6497" />
  <sodipodi:namedview
     id="base"
     pagecolor="#ffffff"
     bordercolor="#666666"
     borderopacity="1.0"
     inkscape:pageopacity="0.0"
     inkscape:pageshadow="2"
     inkscape:zoom="0.9899495"
     inkscape:cx="140.96047"
     inkscape:cy="116.95173"
     inkscape:document-units="mm"
     inkscape:current-layer="layer1"
     showgrid="false"
     inkscape:window-width="1920"
     inkscape:window-height="950"
     inkscape:window-x="-9"
     inkscape:window-y="-9"
     inkscape:window-maximized="1"
     fit-margin-top="0"
     fit-margin-left="0"
     fit-margin-right="0"
     fit-margin-bottom="0"
     objecttolerance="20"
     guidetolerance="20"
     gridtolerance="10" />
  <metadata
     id="metadata6500">
    <rdf:RDF>
      <cc:Work
         rdf:about="">
        <dc:format>image/svg+xml</dc:format>
        <dc:type
           rdf:resource="http://purl.org/dc/dcmitype/StillImage" />
        <dc:title></dc:title>
      </cc:Work>
    </rdf:RDF>
  </metadata>
  <g
     inkscape:label="Calque 1"
     inkscape:groupmode="layer"
     id="layer1"
     transform="translate(-69.730989,-196.94985)">
    <g
       id="flandre-est"
       transform="matrix(0.24324785,0,0,0.24324785,115.33217,225.49663)">
      <path
         inkscape:connector-curvature="0"
         d="m -11.387967,-117.35678 16.4,21.42 -6.25,9.27 8.19,30.530001 -3.34,9.06 -27.04,7.7 3.05,18.77 9.63,1.02 v 0 l -1.42,10.97999 -17.12,10.26 3.58,11.09 -13.2,-0.13 -10.43,28.97 4.08,15.02 -21.98,4.26 0.55,13.46 h -10.9 v 0 l -23.550003,-4.72 -3.21,-10.27 -15.86,2.7 -9.22,15.76 -33.18,-14.35 v 0 l 12.06,-11.76 -13.4,-19.07 5.05,-9.2 -12.14,-2.21 8.68,-11.85 -9.06,-4.28 6.3,-27.86999 -22.35,-15.93 15.42,-19.02 -9.86,-9.68 4.14,-25.630001 v 0 l 9.15,9.27 19.2,-0.37 -2.26,-12.77 14.73,-5.87 36.27,13.25 2.650004,15.030001 18.709999,-2.670001 -0.09,7.030001 33.86,-13.530001 z"
         id="path2124" />
    </g>
  </g>
</svg>
