<?xml version="1.0" encoding="UTF-8" standalone="no"?>
<!-- Created with Inkscape (http://www.inkscape.org/) -->

<svg
   xmlns:dc="http://purl.org/dc/elements/1.1/"
   xmlns:cc="http://creativecommons.org/ns#"
   xmlns:rdf="http://www.w3.org/1999/02/22-rdf-syntax-ns#"
   xmlns:svg="http://www.w3.org/2000/svg"
   xmlns="http://www.w3.org/2000/svg"
   xmlns:sodipodi="http://sodipodi.sourceforge.net/DTD/sodipodi-0.dtd"
   xmlns:inkscape="http://www.inkscape.org/namespaces/inkscape"
   width="317.56601"
   height="242.87703"
   viewBox="0 0 84.022673 64.261213"
   version="1.1"
   id="svg6503"
   inkscape:version="0.92.3 (2405546, 2018-03-11)"
   sodipodi:docname="hainaut-700.svg">
  <defs
     id="defs6497" />
  <sodipodi:namedview
     id="base"
     pagecolor="#ffffff"
     bordercolor="#666666"
     borderopacity="1.0"
     inkscape:pageopacity="0.0"
     inkscape:pageshadow="2"
     inkscape:zoom="0.9899495"
     inkscape:cx="685.29566"
     inkscape:cy="195.5616"
     inkscape:document-units="mm"
     inkscape:current-layer="layer1"
     showgrid="false"
     inkscape:window-width="1920"
     inkscape:window-height="950"
     inkscape:window-x="-9"
     inkscape:window-y="-9"
     inkscape:window-maximized="1"
     fit-margin-top="0"
     fit-margin-left="0"
     fit-margin-right="0"
     fit-margin-bottom="0"
     objecttolerance="20"
     guidetolerance="20"
     gridtolerance="10" />
  <metadata
     id="metadata6500">
    <rdf:RDF>
      <cc:Work
         rdf:about="">
        <dc:format>image/svg+xml</dc:format>
        <dc:type
           rdf:resource="http://purl.org/dc/dcmitype/StillImage" />
        <dc:title></dc:title>
      </cc:Work>
    </rdf:RDF>
  </metadata>
  <g
     inkscape:label="Calque 1"
     inkscape:groupmode="layer"
     id="layer1"
     transform="translate(42.19861,-197.601)">
    <g
       id="hainaut"
       transform="matrix(0.24324785,0,0,0.24324785,26.598686,185.4062)">
      <path
         inkscape:connector-curvature="0"
         d="m -162.60798,63.433229 33.19,14.35 9.22,-15.76 15.85,-2.7 3.21,10.27 23.560014,4.72 v 0 l 3.11,12.74 36.45,-4.9 v 0 l 1.21,22.680001 14.69,-8.990001 29.3500003,36.130001 15.5399997,-6.47 11.24,1.99 -0.6,9.31 21.63,-4.03 v 0 l -1.36,30.57999 8.91,5.12 -4.55,29.48 -37.02,4.68 -22.4499997,16.94 21.9599997,7.04 -7.37,19.33 13.67,68.37 v 0 l -56.49,-11.19 3.52,-20.77 13.64,-6.38 -5.88,-19.26 -13.97,-0.21 15.56,-42.01 -8.99,-5.19 -4.8,9.47 -22,-30.68 -23.85,9.73 -30.070014,-7.36 -7.7,14.01 -9.69,-19.6 0.31,-26.39 -10.13,-12.00999 -21.01,2.68 3.54,-11.07 -8.58,-2.93 -19.2,12.81 -16.43999,-10.13 -10.15,-40.790001 4.16,-13.35 -16.17,-16.73 v 0 l 25,0.18 10.49999,14.04 z m -116.14999,18.54 -4.07,-13.33 23.17,-7.24 -4.61,-6.08 12.39,-5.19 3.62,11.51 v 0 l -15.46,8.86 -5.82,15.75 z"
         id="path2106" />
    </g>
  </g>
</svg>
