<?xml version="1.0" encoding="UTF-8" standalone="no"?>
<!-- Created with Inkscape (http://www.inkscape.org/) -->

<svg
   xmlns:dc="http://purl.org/dc/elements/1.1/"
   xmlns:cc="http://creativecommons.org/ns#"
   xmlns:rdf="http://www.w3.org/1999/02/22-rdf-syntax-ns#"
   xmlns:svg="http://www.w3.org/2000/svg"
   xmlns="http://www.w3.org/2000/svg"
   xmlns:sodipodi="http://sodipodi.sourceforge.net/DTD/sodipodi-0.dtd"
   xmlns:inkscape="http://www.inkscape.org/namespaces/inkscape"
   width="254.62648"
   height="191.14455"
   viewBox="0 0 67.369922 50.573661"
   version="1.1"
   id="svg6503"
   inkscape:version="0.92.3 (2405546, 2018-03-11)"
   sodipodi:docname="liege-700.svg">
  <defs
     id="defs6497" />
  <sodipodi:namedview
     id="base"
     pagecolor="#ffffff"
     bordercolor="#666666"
     borderopacity="1.0"
     inkscape:pageopacity="0.0"
     inkscape:pageshadow="2"
     inkscape:zoom="0.7"
     inkscape:cx="367.62762"
     inkscape:cy="141.73219"
     inkscape:document-units="mm"
     inkscape:current-layer="layer1"
     showgrid="false"
     inkscape:window-width="1920"
     inkscape:window-height="950"
     inkscape:window-x="-9"
     inkscape:window-y="-9"
     inkscape:window-maximized="1"
     fit-margin-top="0"
     fit-margin-left="0"
     fit-margin-right="0"
     fit-margin-bottom="0"
     objecttolerance="20"
     guidetolerance="20"
     gridtolerance="10" />
  <metadata
     id="metadata6500">
    <rdf:RDF>
      <cc:Work
         rdf:about="">
        <dc:format>image/svg+xml</dc:format>
        <dc:type
           rdf:resource="http://purl.org/dc/dcmitype/StillImage" />
        <dc:title></dc:title>
      </cc:Work>
    </rdf:RDF>
  </metadata>
  <g
     inkscape:label="Calque 1"
     inkscape:groupmode="layer"
     id="layer1"
     transform="translate(-57.863745,-189.24278)">
    <g
       id="liege"
       transform="matrix(0.24324785,0,0,0.24324785,25.272902,177.14771)">
      <path
         inkscape:connector-curvature="0"
         d="m 271.95203,49.75322 -2.02,16.45 v 0 l 38.94,14.96 1.89,-14.2 v 0 l 24.96,0.1 3.81,11.22 15.02,-1.08 11.75,29.39 17.82,-0.03 -17.61,25.73 9.26,14.28 24.2,2.01 4.98,16.09 -6.85,17.14 12.84,13.62 -8.99,9.48 -10.5,-4.53 -5.29,15.67 -20.13,9.62 2.82,15.91 -8.7,2.21 -1.26,13.84 -5.06,-11.02 -10.21,3.96 -7.08,-9.14 v 0 l -8.82,-44.57 -22.7,-5.2 -3.38,20.17 6.98,0.46 -14.3,7.61 -16.28,-2.15 -0.41,-29.13 -36.02,-10.5 -4.79,-9.89 -8.53999,5.36 -9.24,-6.76 -5.23,15.43 v 0 l -18.67,4.32 -12.16,-11.71 -7.26,-23.12 -6.81,3.17 -4.26,-13.42 -20.6,-6.25 -10.07,-33.43 v 0 l 7.12,-33.2 v 0 l 15.68,12.63 v 0 l 12.62,4.07 1.79,-8.73 25.27,2.36 16.05,-9.62 5.99,8.88 11.44,-1.47 40.91999,-27.02 v 0 z"
         id="path2115" />
    </g>
  </g>
</svg>
