<?xml version="1.0" encoding="UTF-8" standalone="no"?>
<!-- Created with Inkscape (http://www.inkscape.org/) -->

<svg
   xmlns:dc="http://purl.org/dc/elements/1.1/"
   xmlns:cc="http://creativecommons.org/ns#"
   xmlns:rdf="http://www.w3.org/1999/02/22-rdf-syntax-ns#"
   xmlns:svg="http://www.w3.org/2000/svg"
   xmlns="http://www.w3.org/2000/svg"
   xmlns:sodipodi="http://sodipodi.sourceforge.net/DTD/sodipodi-0.dtd"
   xmlns:inkscape="http://www.inkscape.org/namespaces/inkscape"
   width="162.95691"
   height="171.24036"
   viewBox="0 0 43.115682 45.307344"
   version="1.1"
   id="svg6503"
   inkscape:version="0.92.3 (2405546, 2018-03-11)"
   sodipodi:docname="limbourg-700.svg">
  <defs
     id="defs6497" />
  <sodipodi:namedview
     id="base"
     pagecolor="#ffffff"
     bordercolor="#666666"
     borderopacity="1.0"
     inkscape:pageopacity="0.0"
     inkscape:pageshadow="2"
     inkscape:zoom="0.7"
     inkscape:cx="-170.27375"
     inkscape:cy="139.23136"
     inkscape:document-units="mm"
     inkscape:current-layer="layer1"
     showgrid="false"
     inkscape:window-width="1920"
     inkscape:window-height="950"
     inkscape:window-x="-9"
     inkscape:window-y="-9"
     inkscape:window-maximized="1"
     fit-margin-top="0"
     fit-margin-left="0"
     fit-margin-right="0"
     fit-margin-bottom="0"
     objecttolerance="20"
     guidetolerance="20"
     gridtolerance="10" />
  <metadata
     id="metadata6500">
    <rdf:RDF>
      <cc:Work
         rdf:about="">
        <dc:format>image/svg+xml</dc:format>
        <dc:type
           rdf:resource="http://purl.org/dc/dcmitype/StillImage" />
        <dc:title></dc:title>
      </cc:Work>
    </rdf:RDF>
  </metadata>
  <g
     inkscape:label="Calque 1"
     inkscape:groupmode="layer"
     id="layer1"
     transform="translate(-66.064895,-190.01226)">
    <g
       id="limburg"
       transform="matrix(0.24324785,0,0,0.24324785,33.588381,214.56735)">
      <path
         inkscape:connector-curvature="0"
         d="m 289.62204,62.97322 21.14,3.99 v 0 l -1.89,14.19 -38.94,-14.96 v 0 z m -48.4,-156.939999 5.1,17.2 56.92,24.11 -26.01,56.169999 7.12,3.79 -21.88,24.15 8.4,18.25 v 0 l -40.93001,27.02 -11.44,1.47 -5.99,-8.89 -16.05,9.62 -25.27,-2.34 -1.79,8.73 -12.63,-4.07 v 0 l 16.55,-59.62 -18.38,-1.66 -9.43,-10.31 14.34,-24.039999 8.05,-1.11 -7.84,-7.9 -11.65,10.83 -14.9,-6.2 v 0 l 6.09,-12.47 48.55,-23.15 -9.3,-21.54 4.49,-12.64 v 0 l 34.94,-0.56 13.34,-11.820001 z"
         id="path2118" />
    </g>
  </g>
</svg>
